<mxfile host="app.diagrams.net" modified="2022-05-21T01:27:28.792Z" agent="5.0 (Macintosh; Intel Mac OS X 10_15_6) AppleWebKit/605.1.15 (KHTML, like Gecko) Version/14.0.2 Safari/605.1.15" etag="I9dx_rLLGI_LcK9IJgD8" version="18.1.1" type="github">
  <diagram id="TpenBYq6ZIv4DkMPZ1iK" name="Page-1">
    <mxGraphModel dx="946" dy="620" grid="1" gridSize="10" guides="1" tooltips="1" connect="1" arrows="1" fold="1" page="1" pageScale="1" pageWidth="827" pageHeight="1169" math="0" shadow="0">
      <root>
        <mxCell id="0" />
        <mxCell id="1" parent="0" />
        <mxCell id="V-5yI5DxgADN4dcel62K-2" value="Consumer" style="rounded=1;whiteSpace=wrap;html=1;" parent="1" vertex="1">
          <mxGeometry x="180" y="90" width="120" height="60" as="geometry" />
        </mxCell>
        <mxCell id="V-5yI5DxgADN4dcel62K-3" value="Broker" style="rounded=1;whiteSpace=wrap;html=1;" parent="1" vertex="1">
          <mxGeometry x="460" y="90" width="120" height="60" as="geometry" />
        </mxCell>
        <mxCell id="V-5yI5DxgADN4dcel62K-4" value="" style="endArrow=none;dashed=1;html=1;dashPattern=1 3;strokeWidth=2;rounded=0;" parent="1" edge="1">
          <mxGeometry width="50" height="50" relative="1" as="geometry">
            <mxPoint x="140" y="160" as="sourcePoint" />
            <mxPoint x="610" y="160" as="targetPoint" />
          </mxGeometry>
        </mxCell>
        <mxCell id="V-5yI5DxgADN4dcel62K-5" value="" style="endArrow=none;dashed=1;html=1;dashPattern=1 3;strokeWidth=2;rounded=0;entryX=0.5;entryY=1;entryDx=0;entryDy=0;" parent="1" target="V-5yI5DxgADN4dcel62K-2" edge="1">
          <mxGeometry width="50" height="50" relative="1" as="geometry">
            <mxPoint x="240" y="720" as="sourcePoint" />
            <mxPoint x="440" y="290" as="targetPoint" />
          </mxGeometry>
        </mxCell>
        <mxCell id="V-5yI5DxgADN4dcel62K-7" value="" style="endArrow=none;dashed=1;html=1;dashPattern=1 3;strokeWidth=2;rounded=0;entryX=0.5;entryY=1;entryDx=0;entryDy=0;" parent="1" target="V-5yI5DxgADN4dcel62K-3" edge="1">
          <mxGeometry width="50" height="50" relative="1" as="geometry">
            <mxPoint x="520" y="720" as="sourcePoint" />
            <mxPoint x="570" y="150" as="targetPoint" />
          </mxGeometry>
        </mxCell>
        <mxCell id="gZu7Au-dJj4Ai8iQaX3X-4" style="edgeStyle=orthogonalEdgeStyle;rounded=0;orthogonalLoop=1;jettySize=auto;html=1;exitX=1;exitY=0.25;exitDx=0;exitDy=0;dashed=1;" edge="1" parent="1" source="gZu7Au-dJj4Ai8iQaX3X-1">
          <mxGeometry relative="1" as="geometry">
            <mxPoint x="520" y="188" as="targetPoint" />
          </mxGeometry>
        </mxCell>
        <mxCell id="gZu7Au-dJj4Ai8iQaX3X-1" value="Protocol Header 0-9-1" style="text;html=1;strokeColor=none;fillColor=none;align=center;verticalAlign=middle;whiteSpace=wrap;rounded=0;" vertex="1" parent="1">
          <mxGeometry x="240" y="180" width="80" height="30" as="geometry" />
        </mxCell>
        <mxCell id="gZu7Au-dJj4Ai8iQaX3X-6" style="edgeStyle=orthogonalEdgeStyle;rounded=0;orthogonalLoop=1;jettySize=auto;html=1;dashed=1;" edge="1" parent="1" source="gZu7Au-dJj4Ai8iQaX3X-2">
          <mxGeometry relative="1" as="geometry">
            <mxPoint x="240" y="245" as="targetPoint" />
          </mxGeometry>
        </mxCell>
        <mxCell id="gZu7Au-dJj4Ai8iQaX3X-2" value="Connection.Start" style="text;html=1;strokeColor=none;fillColor=none;align=center;verticalAlign=middle;whiteSpace=wrap;rounded=0;" vertex="1" parent="1">
          <mxGeometry x="440" y="230" width="60" height="30" as="geometry" />
        </mxCell>
        <mxCell id="gZu7Au-dJj4Ai8iQaX3X-8" style="edgeStyle=orthogonalEdgeStyle;rounded=0;orthogonalLoop=1;jettySize=auto;html=1;exitX=1;exitY=0.5;exitDx=0;exitDy=0;dashed=1;" edge="1" parent="1" source="gZu7Au-dJj4Ai8iQaX3X-7">
          <mxGeometry relative="1" as="geometry">
            <mxPoint x="520" y="295" as="targetPoint" />
          </mxGeometry>
        </mxCell>
        <mxCell id="gZu7Au-dJj4Ai8iQaX3X-7" value="Connection.Start-Ok" style="text;html=1;strokeColor=none;fillColor=none;align=center;verticalAlign=middle;whiteSpace=wrap;rounded=0;" vertex="1" parent="1">
          <mxGeometry x="240" y="280" width="100" height="30" as="geometry" />
        </mxCell>
        <mxCell id="gZu7Au-dJj4Ai8iQaX3X-11" style="edgeStyle=orthogonalEdgeStyle;rounded=0;orthogonalLoop=1;jettySize=auto;html=1;dashed=1;" edge="1" parent="1" source="gZu7Au-dJj4Ai8iQaX3X-9">
          <mxGeometry relative="1" as="geometry">
            <mxPoint x="240" y="345" as="targetPoint" />
          </mxGeometry>
        </mxCell>
        <mxCell id="gZu7Au-dJj4Ai8iQaX3X-9" value="Connection.Tune" style="text;html=1;strokeColor=none;fillColor=none;align=center;verticalAlign=middle;whiteSpace=wrap;rounded=0;" vertex="1" parent="1">
          <mxGeometry x="440" y="330" width="60" height="30" as="geometry" />
        </mxCell>
        <mxCell id="gZu7Au-dJj4Ai8iQaX3X-13" style="edgeStyle=orthogonalEdgeStyle;rounded=0;orthogonalLoop=1;jettySize=auto;html=1;exitX=1;exitY=0.5;exitDx=0;exitDy=0;dashed=1;" edge="1" parent="1" source="gZu7Au-dJj4Ai8iQaX3X-12">
          <mxGeometry relative="1" as="geometry">
            <mxPoint x="520" y="395" as="targetPoint" />
          </mxGeometry>
        </mxCell>
        <mxCell id="gZu7Au-dJj4Ai8iQaX3X-12" value="Connection.Tune-Ok" style="text;html=1;strokeColor=none;fillColor=none;align=center;verticalAlign=middle;whiteSpace=wrap;rounded=0;" vertex="1" parent="1">
          <mxGeometry x="240" y="380" width="100" height="30" as="geometry" />
        </mxCell>
        <mxCell id="gZu7Au-dJj4Ai8iQaX3X-15" style="edgeStyle=orthogonalEdgeStyle;rounded=0;orthogonalLoop=1;jettySize=auto;html=1;exitX=1;exitY=0.5;exitDx=0;exitDy=0;dashed=1;" edge="1" parent="1" source="gZu7Au-dJj4Ai8iQaX3X-14">
          <mxGeometry relative="1" as="geometry">
            <mxPoint x="520" y="445" as="targetPoint" />
          </mxGeometry>
        </mxCell>
        <mxCell id="gZu7Au-dJj4Ai8iQaX3X-14" value="Connection.Open" style="text;html=1;strokeColor=none;fillColor=none;align=center;verticalAlign=middle;whiteSpace=wrap;rounded=0;" vertex="1" parent="1">
          <mxGeometry x="240" y="430" width="100" height="30" as="geometry" />
        </mxCell>
        <mxCell id="gZu7Au-dJj4Ai8iQaX3X-19" style="edgeStyle=orthogonalEdgeStyle;rounded=0;orthogonalLoop=1;jettySize=auto;html=1;dashed=1;" edge="1" parent="1" source="gZu7Au-dJj4Ai8iQaX3X-16">
          <mxGeometry relative="1" as="geometry">
            <mxPoint x="240" y="495" as="targetPoint" />
          </mxGeometry>
        </mxCell>
        <mxCell id="gZu7Au-dJj4Ai8iQaX3X-16" value="Connection.Open-Ok" style="text;html=1;strokeColor=none;fillColor=none;align=center;verticalAlign=middle;whiteSpace=wrap;rounded=0;" vertex="1" parent="1">
          <mxGeometry x="440" y="480" width="60" height="30" as="geometry" />
        </mxCell>
        <mxCell id="gZu7Au-dJj4Ai8iQaX3X-21" style="edgeStyle=orthogonalEdgeStyle;rounded=0;orthogonalLoop=1;jettySize=auto;html=1;exitX=1;exitY=0.5;exitDx=0;exitDy=0;dashed=1;" edge="1" parent="1" source="gZu7Au-dJj4Ai8iQaX3X-20">
          <mxGeometry relative="1" as="geometry">
            <mxPoint x="520" y="535" as="targetPoint" />
          </mxGeometry>
        </mxCell>
        <mxCell id="gZu7Au-dJj4Ai8iQaX3X-20" value="Channel.Open" style="text;html=1;strokeColor=none;fillColor=none;align=center;verticalAlign=middle;whiteSpace=wrap;rounded=0;" vertex="1" parent="1">
          <mxGeometry x="230" y="520" width="100" height="30" as="geometry" />
        </mxCell>
        <mxCell id="gZu7Au-dJj4Ai8iQaX3X-23" style="edgeStyle=orthogonalEdgeStyle;rounded=0;orthogonalLoop=1;jettySize=auto;html=1;dashed=1;" edge="1" parent="1" source="gZu7Au-dJj4Ai8iQaX3X-22">
          <mxGeometry relative="1" as="geometry">
            <mxPoint x="240" y="575" as="targetPoint" />
          </mxGeometry>
        </mxCell>
        <mxCell id="gZu7Au-dJj4Ai8iQaX3X-22" value="Channel.Open-Ok" style="text;html=1;strokeColor=none;fillColor=none;align=center;verticalAlign=middle;whiteSpace=wrap;rounded=0;" vertex="1" parent="1">
          <mxGeometry x="440" y="560" width="60" height="30" as="geometry" />
        </mxCell>
        <mxCell id="gZu7Au-dJj4Ai8iQaX3X-24" value="" style="shape=curlyBracket;whiteSpace=wrap;html=1;rounded=1;" vertex="1" parent="1">
          <mxGeometry x="190" y="190" width="20" height="300" as="geometry" />
        </mxCell>
        <mxCell id="gZu7Au-dJj4Ai8iQaX3X-26" value="1、建立连接" style="text;html=1;strokeColor=none;fillColor=none;align=center;verticalAlign=middle;whiteSpace=wrap;rounded=0;" vertex="1" parent="1">
          <mxGeometry x="90" y="330" width="70" height="30" as="geometry" />
        </mxCell>
        <mxCell id="gZu7Au-dJj4Ai8iQaX3X-27" value="" style="shape=curlyBracket;whiteSpace=wrap;html=1;rounded=1;" vertex="1" parent="1">
          <mxGeometry x="190" y="530" width="20" height="40" as="geometry" />
        </mxCell>
        <mxCell id="gZu7Au-dJj4Ai8iQaX3X-28" value="2、开启通道" style="text;html=1;strokeColor=none;fillColor=none;align=center;verticalAlign=middle;whiteSpace=wrap;rounded=0;" vertex="1" parent="1">
          <mxGeometry x="100" y="535" width="70" height="25" as="geometry" />
        </mxCell>
      </root>
    </mxGraphModel>
  </diagram>
</mxfile>
